<?xml version="1.0" encoding="windows-1252"?>
<!-- Generator: Adobe Illustrator 18.1.1, SVG Export Plug-In . SVG Version: 6.00 Build 0)  -->
<svg version="1.1" id="Layer_1" xmlns="http://www.w3.org/2000/svg" xmlns:xlink="http://www.w3.org/1999/xlink" x="0px" y="0px" viewBox="0 0 300 300" style="enable-background:new 0 0 300 300;" xml:space="preserve">
<g id="Layer_2">
	<path style="fill:#F79232;" d="M150,0C66.667,0,0,66.667,0,150s66.667,150,150,150s150-66.667,150-150S233.333,0,150,0z    M136.667,178.333L125,190l-41.667-40L95,138.333l30-30L136.667,120l-30,30L136.667,178.333z M205,161.667l-30,30L163.333,180   l30-30l-30-30L175,108.333L216.667,150L205,161.667z"/>
</g>
<g>
	<polygon style="fill:#FFFFFF;" points="175,191.667 205,161.667 216.667,150 175,108.333 163.333,120 193.333,150 163.333,180  "/>
	<polygon style="fill:#FFFFFF;" points="125,108.333 95,138.333 83.333,150 125,190 136.667,178.333 106.667,150 136.667,120  "/>
</g>
</svg>