<?xml version="1.0" encoding="windows-1252"?>
<!-- Generator: Adobe Illustrator 18.1.1, SVG Export Plug-In . SVG Version: 6.00 Build 0)  -->
<svg version="1.1" id="Layer_1" xmlns="http://www.w3.org/2000/svg" xmlns:xlink="http://www.w3.org/1999/xlink" x="0px" y="0px" viewBox="0 0 300 300" style="enable-background:new 0 0 300 300;" xml:space="preserve">
<g id="Layer_2">
	<path style="fill:#3572B0;" d="M150,0C66.667,0,0,66.667,0,150s66.667,150,150,150s150-66.667,150-150S233.333,0,150,0z    M166.667,216.667H83.333V200h83.333V216.667z M216.667,183.333H83.333v-16.667h133.333V183.333z M216.667,150H83.333v-16.667   h133.333V150z M216.667,116.667H83.333V100h133.333V116.667z"/>
</g>
<rect x="83.333" y="200" style="fill:#FFFFFF;" width="83.333" height="16.667"/>
<rect x="83.333" y="166.667" style="fill:#FFFFFF;" width="133.333" height="16.667"/>
<rect x="83.333" y="133.333" style="fill:#FFFFFF;" width="133.333" height="16.667"/>
<rect x="83.333" y="100" style="fill:#FFFFFF;" width="133.333" height="16.667"/>
</svg>