<?xml version="1.0" encoding="windows-1252"?>
<!-- Generator: Adobe Illustrator 18.1.1, SVG Export Plug-In . SVG Version: 6.00 Build 0)  -->
<svg version="1.1" id="Layer_1" xmlns="http://www.w3.org/2000/svg" xmlns:xlink="http://www.w3.org/1999/xlink" x="0px" y="0px" viewBox="0 0 300 300" style="enable-background:new 0 0 300 300;" xml:space="preserve">
<g id="Layer_2">
	<g>
		<rect x="100" y="100" style="fill:#67AB49;" width="100" height="66.667"/>
		<path style="fill:#67AB49;" d="M150,0C66.667,0,0,66.667,0,150s66.667,150,150,150s150-66.667,150-150S233.333,0,150,0z     M216.667,100v66.667v16.667h-50V200H200v16.667H100V200h33.333v-16.667h-50v-16.667V100V83.333h133.333V100z"/>
	</g>
</g>
<path style="fill:#FFFFFF;" d="M216.667,183.333v-16.667V100V83.333H83.333V100v66.667v16.667h50V200H100v16.667h100V200h-33.333  v-16.667H216.667z M100,166.667V100h100v66.667H100z"/>
</svg>